# xmcd CD database file
#
# Track frame offsets:
#	150
#	16288
#	33871
#	53805
#	74359
#	92677
#	109755
#	133978
#	152430
#	172162
#
# Disc length: 2549 seconds
#
# Revision: 0
# Processed by: cddbd v1.5.2PL0 Copyright (c) Steve Scherf et al.
# Submitted via: CDex 1.51
#
DISCID=8009f30a
DTITLE=Gito Baloi - Beyon
DYEAR=2008
DGENRE=Jazz
TTITLE0=Queremos Viverem Paz
TTITLE1=Sinto Me Bem
TTITLE2=Mina Nawe
TTITLE3=Todos Dias
TTITLE4=Sol
TTITLE5=Uma Mensagem
TTITLE6=Protecao Deste Mundo
TTITLE7=Matikweni
TTITLE8=Over The Seas
TTITLE9=Feeling Good/Instrumental Remix
EXTD=YEAR: 2008
EXTT0=
EXTT1=
EXTT2=
EXTT3=
EXTT4=
EXTT5=
EXTT6=
EXTT7=
EXTT8=
EXTT9=
PLAYORDER=
